<svg xmlns="http://www.w3.org/2000/svg" viewBox="0 0 1440 1024">
  <g fill="#003bb0" fill-rule="evenodd" opacity=".05">
    <path d="M349.8 364.7V398h.2v13h-17.2v-39l-24.6-24.6v63.5H291V323h17.2v.2zM218 503c.5-.7 5.2 1 11.1 6.2 9 7.9 7.6 23 8.5 41.6.8 18.5-3.4 57.8-5.4 78.9a46 46 0 0 0 9.3 34.8c-5.6 1-13-2.2-21.9-9.9-13.5-11.5-6.2-42.4-6.2-71 0-19-6.3-36-18.8-50.5-7.9-.4-15-4.5-21.4-12.4-6.6-8.2-5.5-27-6.5-39a63.5 63.5 0 0 0-26.9-13c-19.1-4-42 1.4-70.2 19.2-26.1 16.6-36.5 38.2-33 60.6a65.4 65.4 0 0 0 38.6 48.3c27.5 11.8 46.6 24.4 56.7 38 9 12.2 10.8 25.5 5.6 37-2.2 5.2-9 7.3-25.2 4.7-5.6-.8-12.7-1-17.7 1.7-3.7 2-5.5 6.9-8 7.6-4 1.2-5-3.7-5-7.6 0-6.4 4.5-8.1 14.6-10.4 10.2-2.2 8.3-9.5 6.7-11.7-5.4-7.4-19.7-16.8-41.8-26.2a101.3 101.3 0 0 1-60-75.8c-5.8-37 11.2-72.5 49.3-96.6 35.5-22.5 67.8-30 96.7-24a101.3 101.3 0 0 1 48.6 25.8c7.7 4.5 11.7 6.4 18.3 6.4 6.4 0 6.4-22.5 3.8-30.9-8.3-26.4-10-35.8-11.2-50-1-12.5.4-24.7 4.7-37.9H18C4 347 .3 357.2 7.4 378a59.8 59.8 0 0 1-24.4-49c0-10.6 16-17.9 35.1-17.9h239.4c9.6 0-15 24.7-29 33.1-11.7 7-7.9 26.7-6.8 39.4 1 12.3 4.4 23.7 12.9 45.8 3.4 9.1 5 17.7 7.2 36.4 1.4 12 2 17 3.2 22.6 2 10.2 4.8 18.8 7.8 25 1.4 2.8 2.7 5 4 6.4 10.6 11.7 21.5 16 32.2 13.7-2.2 6.1-19.7 9-34.8 2.2-10.7-4.7-15.8-19-19.6-25.3-3.8-6.4-9.7-9-16.7-7.3z"/>
    <path d="M99.3 521.7L95 570.8l-6.6-.5 2.4-27.7-16 7.7 4.2-49.1 6.6.5-2.4 27.7zM134.3 536.7l-4.3 49.1-6.6-.5 2.4-27.7-16 7.7 4.2-49.1 6.6.5-2.4 27.7zM169.3 550.7l-4.3 49.1-6.6-.5 2.4-27.7-16 7.7 4.2-49.1 6.6.5-2.4 27.7zM654.7 354.8l18.3 18.8v15.2L654.7 370v41H638v-88h16.7l18.3 18.9v24.3l-18.3-18.8zM696 411h-17v-88h17zM745.6 335.5l37.4 64.3-14.9 8.6-35.4-61-17.1 63.6-16.6-4.4 22.8-84.6a159 159 0 0 1 23.8 13.5zM633.8 364.7V398h.2v13h-17.2v-39l-24.6-24.6v63.5H575V323h17.2v.2zM547.7 350v60h-17.4v-59.5l-13.8 13.7-10.5-10.5 33-32.7 33 32.7-10.3 10.2zM945 283h201v7H945zM957 830h24v90h-24zM642 562h24v90h-24zM957 958h24v48h-24zM285 878h24v116h-24zM321 895h7v98h-7zM642 691h24v48h-24zM995 886h24v120h-24zM680 562h24v177h-24zM717 428h33v273h-33zM920 863h24v107h-24zM248 783h24v210h-24zM932.5 828l16.5 16.5-16.5 16.5-16.5-16.5zM843.5 813l16.5 16.5-16.5 16.5-16.5-16.5zM843.5 849l16.5 16.5-16.5 16.5-16.5-16.5zM843.5 885l16.5 16.5-16.5 16.5-16.5-16.5zM1006.5 850l16.5 16.5-16.5 16.5-16.5-16.5zM969.5 922l16.5 16.5-16.5 16.5-16.5-16.5zM296.5 842l16.5 16.5-16.5 16.5-16.5-16.5zM654.5 654l16.5 16.5-16.5 16.5-16.5-16.5zM932.5 972l16.5 16.5-16.5 16.5-16.5-16.5zM646 168h36v36h-36zM72 790h36v36H72zM767 109h36v36h-36zM632.7 191.8l25.5 25.5-84.9 84.9-25.5-25.5zM57.7 815.8l25.5 25.5-84.9 84.9-25.5-25.5zM754.7 132.9l25.4 25.4-142.8 142.8-25.4-25.4zM193.7 778.8l25.5 25.5-109 108.9-25.4-25.5zM146.3 683.3l5 5-172.6 172.4-5-5zM76 897.5l25.5 25.5L76 948.5 50.5 923zM76.5 955.3l9.2 9.2-9.2 9.2-9.2-9.2zM826.3 124.8l25.4 25.4-152 152-25.4-25.4zM733 95l25.3 25.2-62.3 57.9-25.3-25.3zM145.3 732.1l25.3 25.4-49 44.4-25.2-25.4zM581.5 210a31.5 31.5 0 1 1 0-63 31.5 31.5 0 0 1 0 63zm0-12.5a19 19 0 1 0 0-38 19 19 0 0 0 0 38zM599 716a25 25 0 1 1 0-50 25 25 0 0 1 0 50zm.3-15.2a9.6 9.6 0 1 0 0-19 9.6 9.6 0 0 0 0 19z"/>
    <circle cx="561" cy="668" r="7"/>
    <path d="M500.1 174.4L560 114l5.1 5.1-60 60.1 60.6 60.7-17.7 17.7-60.7-60.7-47.1 47.2-.8.8c-6.6 6.6-15.8 8-20.5 3.3-2.2-2.1-3-5.2-2.7-8.5l1 1.2c4.8 4.8 14 3.3 20.5-3.2l45-45.5-61.2-61.1 17.7-17.7 61 61zM574 20h7v92h-7zM372 116.7h-.1V5H401v111.7c0 33.3-22.3 60.3-59.9 60.3-22 0-36-7.7-44.9-21.6a75.6 75.6 0 0 1-4.2-8.3c-.5-1.9-.7-3.7-.7-5.6 0-13.7 12.9-24.8 28.8-24.8 15 0 29.9 10 25.4 26.3-2.3-11-10.2-18.6-18-17.2-8 1.4-12.8 11.8-10.8 23.3 2 11.4 10 18.8 18.1 18.2 25.9-1.9 35-22.4 36.8-43.7l.3-4.4v-2.5z"/>
    <path d="M295 5h29v103h-29zM331 5h29v103h-29zM183 134.6c0 9.5-3.3 18.3-8.7 25.2a17 17 0 0 0-1.3 1.8A47.7 47.7 0 0 1 90 129a48 48 0 0 1 75-39.6c-6.3-1.6-14.5-4-27.1-2.8-16.7 1.5-37.3 18-34.5 42.4 1.7 14.6 16.7 32.3 34.5 32.3a32.2 32.2 0 0 0 8.8-63.4c22.6-.4 36.3 18.9 36.3 36.7zM315 291.4a57.3 57.3 0 0 1-15.7-36 53.8 53.8 0 0 1 15.7-40.2c21.1-21 57.3-22.1 78.4-1 21.1 21 19.5 50.5-1 72.2-16 16.8-29.5 14.1-29.3 14 6.2-4 15-8.6 22.2-20.2 9-14.3 8.4-37.2-9.8-53.4-12.4-11-31-11-43.9 0A35.4 35.4 0 0 0 330 277a35.5 35.5 0 0 0 43.5 5.6c-13.2 27.5-44.2 22.9-58.4 8.7zM1313.9 782H1260l6.7-6.8h16.9l53.9-53.7-60.7-60.5h37.1l42.1 42 42.1-42h53.9l-6.7 6.8h-16.9l-53.9 53.7 60.7 60.5h-37.1l-42.1-42zM1378.2 620.7a36 36 0 0 1-11.7-22l-.5-2a42 42 0 0 1 14.2-33c18.9-17.2 51.7-18.8 70.6-1.5 19 17.2 16.8 43.7-2.1 61-7.2 6.5-22.2 9.6-31.7 9.8 7-4.5 13.4-9 19.6-19.1 6.7-11 14.2-31 2.5-41.4-10.5-9.4-28.2-13.5-40.9-1.9s-12.6 25.7-3 39.6c6 9 19.2 12.3 32.1 1.7-18.2 28.1-31.3 25-49.1 8.8zM1120.6 429c-6.3.3-12-1.6-16.3-5l-1.2-.7c-6-5.5-9.5-13.5-9-22.6.8-17.3 16-33.8 33.4-34.7 17.5-.8 29.3 13 28.5 30.3-.4 6.6-6.2 15.2-10.7 20a37 37 0 0 0 .3-18.6c-2-8.5-8-21.7-18.8-21-9.6.5-20.1 7-20.7 18.7-.6 11.6 6.3 18.3 17.6 20.4 7.4 1.4 15.4-3.4 16.5-14.6 4.7 22.2-3.2 27-19.6 27.8zM417.7 578c-4.6.2-8.8-1.2-12-3.7l-1-.6c-4.4-4-7-10-6.7-16.8.6-13 11.9-25.3 24.9-25.9 13-.6 21.7 9.6 21 22.6-.2 5-4.5 11.4-7.8 14.9.9-4.1 1.6-8 .2-13.9-1.5-6.3-6-16.1-14-15.7-7 .4-15 5.3-15.3 14-.4 8.7 4.7 13.7 13 15.3 5.5 1 11.4-2.6 12.3-11 3.5 16.6-2.4 20.2-14.6 20.8zM86.3 733.4a18.2 18.2 0 0 1-11.2 6l-1 .2c-6 .3-12-2.1-16.6-7.2-8.8-9.5-9.5-26.2-.8-35.8 8.8-9.7 22.2-8.6 30.9 1 3.3 3.7 4.8 11.3 5 16.1a27.8 27.8 0 0 0-9.7-10c-5.6-3.3-15.6-7.2-21-1.2-4.7 5.4-6.8 14.3-1 20.8 6 6.4 13 6.4 20.1 1.5 4.6-3.1 6.2-9.8.9-16.3 14.2 9.2 12.6 15.9 4.4 25zM647.2 102.3c-5.9-6-9.2-13.5-9.9-21.4l-.3-2a45.5 45.5 0 0 1 13.3-32.6c17.2-17.3 43-15 60.8-1.5 17.8 13.6 20.3 53-12.6 65.2 21-25.5 20.4-44 2.8-56.3-10.4-7.4-30.9-6-39.3 0-8.4 6-13.8 23.6-2.8 34.8 9.1 9.2 31 4 42.1-2.5-12 28.8-43 27.4-54 16.3zM610.5 524c-15.2-13.8-17.1-53 22.3-68.3-8.9 14-16 41.7-3.3 53.2 15.2 14 39.3 7.1 47.6-3.5 8.3-10.7 10-36.6 0-49.7-17-22.3-42.2-23-77.1 3.5 16.7-41.6 70.6-38.4 89.2-15.9 18.5 22.5 21.7 55.1-2 76.8a65 65 0 0 1-44.7 16.9c-1-.2-1.9-.4-2.7-.4-10.7-1-21.1-5-29.3-12.5zM76.5-6L94 11.5 76.5 29 59 11.5zM433.5 268l17.5 17.5-17.5 17.5-17.5-17.5zM131.5 479l17.5 17.5-17.5 17.5-17.5-17.5zM771.5 268l17.5 17.5-17.5 17.5-17.5-17.5zM1244.4 45.6L1294-4l5 5-49.6 49.6 53.6 53.6-17.8 17.8-53.6-53.6L1181 119l-5-5 50.6-50.6L1173 9.8 1190.8-8l53.6 53.6zM72.9 148l45.1 45.1-17.9 17.9L55 165.9zM148.8 224l31.2 31.2-17.8 17.8-31.2-31.2zM32.7 155L140 262.3 122.3 280 15 172.7zM-5.1 161L76 242.1 58.1 260-23 178.9zM114.5-6L132 11.5 114.5 29 97 11.5zM472.5 268l17.5 17.5-17.5 17.5-17.5-17.5zM810.5 268l17.5 17.5-17.5 17.5-17.5-17.5zM153.5-6L171 11.5 153.5 29 136 11.5zM511.5 268l17.5 17.5-17.5 17.5-17.5-17.5zM1193.5 657l17.5 17.5-17.5 17.5-17.5-17.5zM1027 623l13 13-13 13-13-13zM977 529l10 10-10 10-10-10zM939 529l10 10-10 10-10-10z"/>
    <path d="M961.3 585.2l31.7-31.4 4 4-38.5 38.2v-.3L920 557.6l4-4 31.7 31.4v-78h5.6zM1193.5 696l17.5 17.5-17.5 17.5-17.5-17.5zM1193.5 734l17.5 17.5-17.5 17.5-17.5-17.5zM1193.5 771l17.5 17.5-17.5 17.5-17.5-17.5zM849.5 268l17.5 17.5-17.5 17.5-17.5-17.5zM1196.5 132l17.5 17.5-17.5 17.5-17.5-17.5zM1237.5 132l17.5 17.5-17.5 17.5-17.5-17.5zM1278.5 132l17.5 17.5-17.5 17.5-17.5-17.5zM1372.5 198l17.5 17.5-17.5 17.5-17.5-17.5zM859 226.2L840.2 245 830 234.8l18.8-18.8L830 197l10.1-10.1 18.8 18.8 18.9-18.8 10.2 10.2-18.8 18.9.4.4c15.8 15.7 21.4 21 28 21 2.8 0 5.4-1 7.4-2.6a20 20 0 0 1-31.2 6L859 226.2zM212.5 283l9.5 9.5-9.5 9.5-9.5-9.5zM424 21l12 12-12 12-12-12zM606 21l12 12-12 12-12-12zM1139 34l12 12-12 12-12-12zM820 664l12 12-12 12-12-12zM901 71l12 12-12 12-12-12z"/>
    <path d="M879.4 126.1L917 98.4V192l-19.4 13v-81.1L860 151.6V58l19.4-13zM412.2 705.9l24.8-18.4v62.3L419.8 764v-53.9L395 727.4v-62.3l17.2-13.1zM301.4 658.1c-5.8-.8-9.7 2.6-12.2 7.3a53.9 53.9 0 0 0-2.2 21.2V754h17v-67.6c9.1 9.3 15 13 17.7 11.1 2.8-2 6.6-5.9 11-11.8 1.2-1.4 2.9-4 5.3-7.6l-9 2.8c-14.6-14.6-23.8-22.2-27.6-22.8zM189.4 658.1c-5.8-.8-9.7 2.6-12.2 7.3a53.9 53.9 0 0 0-2.2 21.2V754h17v-67.6c9.1 9.3 15 13 17.7 11.1 2.8-2 6.6-5.9 11-11.8 1.2-1.4 2.9-4 5.3-7.6l-9 2.8c-14.6-14.6-23.8-22.2-27.6-22.8zM233.5 283l9.5 9.5-9.5 9.5-9.5-9.5zM316.5 467l11.5 11.5-11.5 11.5-11.5-11.5zM424 81l12 12-12 12-12-12zM606 81l12 12-12 12-12-12zM1139 92l12 12-12 12-12-12zM820 723l12 12-12 12-12-12zM776.5 892l10.5 10.5-10.5 10.5-10.5-10.5zM1139 121l12 12-12 12-12-12zM1139 151l12 12-12 12-12-12zM1139 180l12 12-12 12-12-12zM1139 209l12 12-12 12-12-12zM1121 329l12 12-12 12-12-12zM1239 803l12 12-12 12-12-12zM1080 799l12 12-12 12-12-12zM1012.7 750.5l12.3 12.2-12.3 12.3-12.2-12.3zM976.3 750.5l12.2 12.2-12.2 12.3-12.3-12.3zM994.5 714l12.3 12.3-12.3 12.2-12.3-12.2zM1080 887l12 12-12 12-12-12zM1091 329l12 12-12 12-12-12zM1063 329l12 12-12 12-12-12zM1034 329l12 12-12 12-12-12zM736 762l12 12-12 12-12-12zM707 762l12 12-12 12-12-12zM678 762l12 12-12 12-12-12zM648 762l12 12-12 12-12-12zM295 757l12 12-12 12-12-12zM49 667l12 12-12 12-12-12zM49 635l12 12-12 12-12-12zM1293 180l12 12-12 12-12-12zM1191.5 230.6c0 17.2 6.5 31.1 14.6 31.1h76.8v-52.6h19.1V269h-98.2c-13.3 0-19.9-4.2-24.6-10.6-4.8-6.5-6.2-24-6.2-41.2 0-20.1 22.7-32.8 41.8-28.3 19 4.5 32.8 20.5 32.8 36.1 0 11.9-7.9 19.1-22 20-10.4.6-17.3-1.8-20.6-7.2 2.3 1 5 1.5 8.1 1.5a20 20 0 0 0 10.2-2.5c7-4 7.9-15.6 2-25.8-4.6-8-12-12.7-18.3-12.6-8.4 0-15.5 9-15.5 32.2zM898.2 669H849v-28h82.7c23 0 31.3 11 31.3 26.6 0 11.8-12.9 33-37.2 29.4 7-2.7 16-17.8 11.6-28h-18v75.6L898.2 758v-89zM605 118l12 12-12 12-12-12zM630 120l12 12-12 12-12-12zM655 122l12 12-12 12-12-12zM255.5 283l9.5 9.5-9.5 9.5-9.5-9.5zM345.5 467l11.5 11.5-11.5 11.5-11.5-11.5zM424 51l12 12-12 12-12-12zM606 51l12 12-12 12-12-12zM1139 63l12 12-12 12-12-12zM820 694l12 12-12 12-12-12zM276.5 283l9.5 9.5-9.5 9.5-9.5-9.5zM375.5 467l11.5 11.5-11.5 11.5-11.5-11.5zM111 204h25v25h-25zM70 254h25v25H70zM251 9l25 25-25 25-25-25zM647-16l25 25-25 25-25-25zM705-16l25 25-25 25-25-25zM951 59l25 25-25 25-25-25zM1337 93l25 25-25 25-25-25zM1305 370l25 25-25 25-25-25zM1194 599l25 25-25 25-25-25zM1296 789l25 25-25 25-25-25zM808 588l25 25-25 25-25-25zM570 432l25 25-25 25-25-25zM519 432l25 25-25 25-25-25zM734 705l25 25-25 25-25-25zM588 785l25 25-25 25-25-25zM483 722l25 25-25 25-25-25zM588 946l25 25-25 25-25-25zM483 883l25 25-25 25-25-25zM1139 811l25 25-25 25-25-25zM1139 752l25 25-25 25-25-25zM1356 789l25 25-25 25-25-25zM867 588l25 25-25 25-25-25zM1414 789l25 25-25 25-25-25zM926 588l25 25-25 25-25-25zM1251 424l25 25-25 25-25-25zM874 452l25 25-25 25-25-25zM613 609l25 25-25 25-25-25zM475 594l25 25-25 25-25-25zM365 659l25 25-25 25-25-25zM254 659l25 25-25 25-25-25zM171 601l25 25-25 25-25-25zM60 366l25 25-25 25-25-25zM115 366l25 25-25 25-25-25zM170 366l25 25-25 25-25-25zM365 713l25 25-25 25-25-25zM254 713l25 25-25 25-25-25zM1183 304l37 37-37 37-37-37zM1294.2 518l-25.2-25.2 78.8-78.8 25.2 25.2zM1359.2 541l-25.2-25.2 58.8-58.8 25.2 25.2zM1304.8 595l25.2-25.2L1217.2 457l-25.2 25.2zM1266 410h23v23h-23zM1318 534h23v23h-23zM1427.5 503.2l16.3 16.3-16.3 16.3-16.3-16.3zM1394 93l25 25-25 25-25-25zM951 117l25 25-25 25-25-25zM951 176l25 25-25 25-25-25zM1 71l25 25-25 25-25-25zM-24 132h99v7h-99zM56 71l25 25-25 25-25-25zM251 64l25 25-25 25-25-25zM251 118l25 25-25 25-25-25zM251 173l25 25-25 25-25-25zM251 226l25 25-25 25-25-25zM131.1 35.3c21.2 0 34.5 9.9 39.9 29.7-4.9-6.9-16.8-10.3-36-10.3H8c-21.2 0-34.5-9.9-39.9-29.7 4.9 6.9 16.8 10.3 36 10.3H131zM1216.2 861.7c5.5-13.8 23-20.7 43.8-20.7-8 2-14.4 9.1-19.3 21.6l-33 82.7c-5.4 13.8-23 20.7-43.7 20.7 8-2 14.4-9.1 19.3-21.6l33-82.7zM560.6 503.5l53.2 71.8c8 10.8 16 16.1 24.2 16-20 5.3-38.8 3.1-47.6-8.8l-53.2-71.8c-8-10.8-16-16.1-24.2-16 20-5.3 38.8-3.1 47.6 8.8zM527.6 525.5l53.2 71.8c8 10.8 16 16.1 24.2 16-20 5.3-38.8 3.1-47.6-8.8l-53.2-71.8c-8-10.8-16-16.1-24.2-16 20-5.3 38.8-3.1 47.6 8.8zM493.6 547.5l53.2 71.8c8 10.8 16 16.1 24.2 16-20 5.3-38.8 3.1-47.6-8.8l-53.2-71.8c-8-10.8-16-16.1-24.2-16 20-5.3 38.8-3.1 47.6 8.8zM432.9 913.7l-57 42.1c-8.6 6.3-12.8 12.7-12.7 19.2-4.2-15.8-2.6-30.7 7-37.7l57-42.1c8.5-6.3 12.7-12.7 12.6-19.2 4.2 15.8 2.6 30.7-7 37.7zM432.9 954.7l-57 42.1c-8.6 6.3-12.8 12.7-12.7 19.2-4.2-15.8-2.6-30.7 7-37.7l57-42.1c8.5-6.3 12.7-12.7 12.6-19.2 4.2 15.8 2.6 30.7-7 37.7zM1062.4 858.4l11.4 14.5c4.5 5.8 9 8.7 13.7 8.6-2.2.6-4.3 1-6.4 1.2-5-.7-9-2.6-11.7-5.9l-10.7-13.7-10.7 13.7c-5 6.4-15.6 7.6-27 4.7 4.6.1 9.2-2.8 13.8-8.6l15.8-20.3-11.4-14.5c-4.5-5.8-9-8.7-13.7-8.6 2.2-.6 4.3-1 6.4-1.2 5 .7 9 2.6 11.7 5.9l10.7 13.7 10.7-13.7c5-6.4 15.6-7.6 27-4.7-4.6-.1-9.2 2.8-13.8 8.6l-15.8 20.3zM280.8 565.7l9.3-11.6c3.7-4.7 7.4-7 11.2-7l-5.2-.9c-4 .6-7.4 2.1-9.5 4.8l-8.8 11-8.7-11c-4.1-5.2-12.8-6.1-22.1-3.8 3.8 0 7.5 2.2 11.2 6.9l13 16.2-9.3 11.6c-3.7 4.7-7.4 7-11.2 7l5.2.9c4-.6 7.4-2.1 9.5-4.8l8.8-11 8.7 11c4.1 5.2 12.8 6.1 22.1 3.8-3.8 0-7.5-2.2-11.2-6.9l-13-16.2zM1137.3 904c-4.5.3-10.2 4.8-14.2 11.7-5 8.9-5.1 19.6-1 24 4.2 4.5 12.3 9.6 20-4.2l29.3-73.8c5.4-13.8 23-20.7 43.6-20.7-8 2-14.3 9.1-19.2 21.6l-32.8 82.7c-5.5 13.8-23 20.7-43.6 20.7-12.5 0-22.4-12.4-22.4-27.4 0-15 16.2-36.9 37.2-35.1l3.1.4z"/>
    <path d="M1094.6 246.4h23.4c24 0 39-4.3 45-13-6.8 25-23.4 37.6-49.9 37.6H954c-24 0-39 4.3-45 13 6.8-25 23.4-37.6 49.9-37.6h32.5v-200c0-4.8-6-10.9-13.4-10.9-7.5 0-13.5 3.9-13.5 8.7 0 2 .6 4 5.8 5.3h-14.6c-10 0-12-5.4-12-8.4 0-10.8 16.3-19.6 36.2-19.6 20 0 36.2 8.8 36.2 19.6v205.3h53.8V18.2a15 15 0 0 1 6-1.2c10.3 0 18.7 10.8 18.7 24.1v205.3zM900.5 1018.6h151c4.8 0 11-6 11-13.5s-2.1-13-11-14.4c-9.3-1.5-7.7 6.9-7.7 14.4-9.4-8.4-14-16-14-22.6 0-10 11.6-19.5 26.4-14.7 14.6 4.6 20.3 19.1 20.3 39.2 0 20.2-8.8 36.5-19.7 36.5H900.5v-24.9zM1407.4 364.6c13 13.2 15.1 27.6 6 43.4 1.3-7.3-4-16.9-15.8-28.7l-61-61c-13-13-15.1-27.5-6-43.3-1.3 7.3 4 16.9 15.8 28.7l61 61zM1398.4 409.6c13 13.2 15.1 27.6 6 43.4 1.3-7.3-4-16.9-15.8-28.7l-61-61c-13-13-15.1-27.5-6-43.3-1.3 7.3 4 16.9 15.8 28.7l61 61zM188 9h37v268h-37zM499 120l-60-64.9L472.9 21 499 47.3 525.1 21 559 55.1 499 120zm0-63.8l-18.6-18.8-25 25.2 43.6 48 43.7-48-25-25.2L499 56.2zM772 33.4L738.4-.3v-.1l10.9-11L761.1.4 758 3.5l21.9 22 34-34-4.6-13.5 26.2 26.2-38.4 38.4L831.5 77l-.1.1.2.3-10.9 11-11.8-11.8 3.2-3.2-22.9-22.9L750.7 89l-17.2-17.1zM359.5 542.4l64.3-64.1 20.7 20.3-21.4 21.4-5.8-5.8-43.1 42.9 70 70-26.5 26.4-70.1-69.8-64 63.7-.7.3-20.4-20.3 21.4-21.4 5.9 5.9 43.1-42.9-70.2-70 26.7-26.5zM1145.8 488.4l117.8 117.7c.1-2.9-.2-5-1-6.2-.9-1.3-3.1-2.8-6.8-4.8l36 5c1 9.7 1.4 16.2 1 19.4a29 29 0 0 1-8 17.2 21.2 21.2 0 0 1-14.4 5.5l-139.3-139L985.2 649 954 617.8l146.7-146.7L982.4 353c-.1 2.9.2 5 1 6.2.9 1.3 3.1 2.8 6.8 4.8l-36-5c-1-9.7-1.4-16.2-1-19.4a29 29 0 0 1 8-17.2c3.3-3.3 8-5.2 14.4-5.5l139.8 139.6L1261.7 310l31.3 31.3-147.2 147.1z"/>
    <path d="M1116 29h6v207h-6zM1300 46h130v34h-130zM1329.1 259.9c-24.2-24.2-22-61.3 2.2-85.6 24.3-24.2 61.4-26.4 85.6-2.2 24.2 24.2 22 61.3-2.2 85.6-24.3 24.2-61.4 26.4-85.6 2.2zm17.6-14.8c15.6 15.6 49.9 15.6 61 4.5 11.1-11.2 11.1-45.4-4.5-61-15.6-15.7-49.9-15.7-61-4.5-11.1 11.1-11.1 45.4 4.5 61zM1370.9 955.9c-24.2 24.2-61.3 22-85.6-2.2-24.2-24.3-26.4-61.4-2.2-85.6 24.2-24.2 61.3-22 85.6 2.2 24.2 24.3 26.4 61.4 2.2 85.6zm-17.6-14.8c15.6-15.6 15.6-49.9 4.5-61-11.1-11.2-45.4-11.2-61 4.5-15.6 15.6-15.6 49.8-4.5 61 11.1 11.1 45.4 11.1 61-4.5zM1046.4 691.6c26.3 26.2 19.4 70.7-6.8 97-26.3 26.2-70.8 33-97 6.8-26.3-26.2-19.4-70.7 6.8-97 26.3-26.2 70.8-33 97-6.8zm-16 19c-16.8-17-58.4-12.5-70.4-.4-12 12-16.5 53.6.4 70.5 16.8 16.9 58.4 12.4 70.4.3 12-12 16.5-53.5-.3-70.4zM364.7 612.3c10 10 7.4 26.8-2.6 36.8-10 10-26.9 12.6-36.8 2.6-10-10-7.4-26.8 2.6-36.8 10-10 26.9-12.6 36.8-2.6zm-7.5 8.6c-5.8-5.7-19.8-4.2-24 0-4 4-5.5 18.1.2 23.8 5.7 5.8 19.8 4.2 23.9.2 4-4.1 5.6-18.2-.1-24z"/>
    <circle cx="1343" cy="596" r="15"/>
    <circle cx="1098" cy="586" r="15"/>
    <circle cx="1348.5" cy="649.5" r="11.5"/>
    <circle cx="1121.5" cy="546.5" r="11.5"/>
    <circle cx="1084.5" cy="626.5" r="8.5"/>
    <path d="M1397 845h35v135h-35zM1224.8 694v27.7l13.9-13.9-14-13.9zm-6.8-40l54 53.7-47.3 47.2v37L1218 811V654zM761 813.5v17l-8.5-8.4 8.5-8.6zm13-24.5l-42 33 29 29v39h13V789zM1073 722h14v74h-14zM1068.6 639.9L1091 662l-32 31.9-32-31.9 22.4-22.2V594h19.2v45.9zm-9.3 14.2l-8.4 8.3 8.4 8.4 8.4-8.4-8.4-8.3zM267 369.2l20-19.8-28.5-28.4-28.5 28.4 20 19.8V410h17v-40.8zm-8.2-12.7l-7.5-7.4 7.5-7.4 7.4 7.4-7.4 7.4zM458.2 374.9L437.5 354l33-33.1 33 33-20.7 20.9 25.2 25.3-10.5 10.5-26.7-26.8-27 27.1-10.8-10.8 25.2-25.3zm12.6-9l12-12-12-12-12 12 12 12zM355.2 342.6h-.1V322l40.9 41.5-24.1 24.5v23H355v-6.2h.1v-57.4.9-5.7zm16.6 17v7.4l3.7-3.7-3.7-3.8z"/>
    <path d="M399.2 342.6h-.1V322l40.9 41.5-24.1 24.5v23H399v-6.2h.1v-57.4.9-5.7zm16.6 17v7.4l3.7-3.7-3.7-3.8zM26.2 717.3L51 742 15.5 777-20 741.9l24.8-24.6V631h21.4v86.3zM15.8 733l-9.3 9.2 9.3 9.2 9.3-9.2-9.3-9.2zM1126.6 704.2c-11.6 5.1-21.5 5.5-29.7 1-5.6-20.8-5-39 20.1-76.1 16.8-24.7 26.4-58.4 28.9-101.1 2.6 10.7 4 20.2 4 28.6 0 12.7 1 41.9-15.9 72.5-17 30.6-17.8 38.7-14.4 49.1a59.2 59.2 0 0 0 34.5-25c3.9 14.2 10.2 32.8 1.7 53.6-4 9.7-17.6 17.4-35.1 42.4-14.2 20.2-12.7 55.3-7.6 96.9 1.3 11.1-2.8 29.1-12.5 53.9 1.5-45.1 1-75.4-1.7-90.9-4-23.2 0-47.2 7.6-73.9 3.8-13.2 13.4-23.3 20.1-31zM1040 887l41 34.3V963h-6.2v-27.1l-34.6-29.1V963h-6.2v-76zM767 520h6v249h-6zM856.8 710.2l-10.6 10.4-12.2-12 18.8-18.5v-.1l12.2-12 12.2 12v.1l18.8 18.5-12.2 12-10.6-10.4V752h-16.4zM895 907.4c0 11.5-2.5 36.2-7.6 50.6-5 14.2-22.2 16-33.8 16h-22c-11.5 0-28.7-1.8-33.7-16-5-14.4-7.6-39-7.9-50.6v-83.8c.3-11.5 2.8-36.2 7.9-50.6 5-14.2 22.2-16 33.8-16h22c11.5 0 28.7 1.8 33.7 16 5 14.4 7.6 39 7.6 50.6v83.8zm-7-83.7c-.6-9-2.5-19.1-8.2-23.1a47.1 47.1 0 0 0-26.2-6.8h-22c-6.7 0-17.8 1-26.1 6.8-5.7 4-7.6 14-8.2 23.1v83.6c.6 9 2.5 19.1 8.2 23.1a47.1 47.1 0 0 0 26.2 6.8h22c6.7 0 17.8-1 26.1-6.8 5.7-4 7.6-14 8.2-23.1v-83.6zM771 916.7l-22.6 22.7 18 18 7.8-7.6 4.8 4.8-7.7 7.7-13.5 13.7-23-23-22.8 22.4-7-7 13.6-13.5 2.3 2.3 9-9-24.9-25 36.2-36.2 29.9 29.7zm-18.4 8.9l-20-20.1-9.1 9 20 20 9.1-9zM672.4 848.4c7.2-13.8 20.7-31.8 34.1-30.1 13.5 1.7 40.1 24.5 18 44.8-22.2 20.3-53.5 51.5-78.5 26.8-25-24.8-9.5-61.5 8.4-74.4 18-13 32.5-4.5 55.5-14.7A143.1 143.1 0 0 0 734 789c-8.2 11-19.5 18-33.9 20.8-21.6 4.3-50.2 6.5-48 33 2.3 26.5 35.7 37.8 48 32.4 3.6-6.8 8.7-18.6-1.7-26.8-10.3-8.1-15.7-5.6-26 0zM579.6 880.1l.1-.1 10.3 10.3-.1.1.1.1-24.2 24.3-.1-.1-49.6 49.8 73.9 74.2-24.2 24.3-84.8-85.2 24.2-24.3.6.7 49.6-49.8-74.4-74.8 24.2-24.3.1.1 50.1-50.4-74.4-74.7 24.2-24.3 74.4 74.8.1-.1L590 741l-.1.1.1.1-24.2 24.3-.1-.1-50.1 50.4zM896 443.3c-8.3-19-9.2-35.3 7.1-37.9 16.3-2.5 44.4-6.4 48.3 27.2 4 33.7-32.8 53.6-50.3 71.8-17.4 18.2-25 20.2-22.7 36.8 1.5 11 4 21.3 7.6 30.8-2.7-10.5 3-22 17.1-34.5 21-18.8 62.4-51.9 67.4-83.6 5-31.6 5-51.8-26.4-68.7-31.4-16.8-58.1 4-62.3 20.2a35.2 35.2 0 0 0 14.3 37.9zM365.1 886.3c-15.7-11.8-43.3-32.3-48.7-54-5.4-21.8-6.7-35.8 14.1-49.4 20.9-13.6 40.6-.8 44.5 10.2 4 11-1 22.3-7.6 27.2 4.7-13.7 4.3-25.1-7.2-25.9-11.4-.7-29.6-1.8-30.3 21.9-.7 23.6 21.4 35.2 34.6 46.9 7.8 6.8 12.9 10 15.6 13.8 2.8-3.7 7.8-6.8 15.4-13.6 13.2-11.6 35.3-23.2 34.6-46.8-.7-23.7-18.9-22.7-30.3-21.9-11.5.8-11.9 12.1-7.2 26a24.6 24.6 0 0 1-7.6-27.3c3.9-11 23.6-23.9 44.5-10.2 20.8 13.6 19.5 27.6 14.1 49.3-5.4 21.8-33 42.3-48.7 54a43 43 0 0 0-15 19.4c-.2 1.1-4.3-11.7-14.8-19.6zM854 442.3c8.3-19 9.2-35.3-7.1-37.9-16.3-2.5-44.4-6.4-48.3 27.2-4 33.7 32.8 53.6 50.3 71.8 17.4 18.2 25 20.2 22.7 36.8A143 143 0 0 1 864 571c2.7-10.5-3-22-17.1-34.5-21-18.8-62.4-51.9-67.4-83.6-5-31.6-5-51.8 26.4-68.7 31.4-16.8 58.1 4 62.3 20.2a35.2 35.2 0 0 1-14.3 37.9zM161 893.3l68-67.3v158h-18.1v-70.3L161 963v-25.4l49.9-49.3v-19L161 918.7zM1059.3 447.7c-8.2-12.6-35.3-54.6-52.2-55.4-17-.8-17.2.2-15.3 1.7 5.4 3.9 3 13.4 2.1 19.2-5.7 38.1-3.5 66.8-3.5 80.3 0 17.3 3 34.4 9 51.5l19-10c-2.3-8.7-3.7-17-4.2-25.2-.6-8.2-.8-20.6-.6-37A60.2 60.2 0 0 0 1030 496c8.2 5.8 25.7-11 23.7-13.2-1.3-1.5-2.8-1.3-4.5.6a91 91 0 0 1-16.2-19.9 568.5 568.5 0 0 0-18.8-28v-14.4c12.2 17.1 21 30.9 26.5 41.3 8.2 15.7 16 13.7 20.9 10.9 2-1.1 14-8.4 14.4-11.7.3-2.6-3.4 2.1-7.4 0-3.4-2-7-10.6-9.3-14zM491 424v63.4a44 44 0 0 1-13.5 26.1 74.5 74.5 0 0 1-20.2 11.5 92 92 0 0 0 14-18 42 42 0 0 0 6.2-19.6V451H291c-7.6 0-19.7-.2-25.3 3.1-3.8 2.3-7.3 7-10.7 14 1.1-13 2.1-21 3-23.8 4-11.8 7.4-20.2 33-20.2h200zM909.4 341c-4.3-2.7-8.4-3.6-11.9-2.2l-3 1.8c-.7.6-6.4 5.1-8.5 6.6-11.4 8.2-24.8 12.4-45.5 12.4-13.4 0-18.4 0-24-.5a55.2 55.2 0 0 1-18.2-3.6c-11.2-4.7-16.7-14-15-31.2 1.7-17.3 25.4-16.4 31-16.4 5.7 0 14.5 2.8 13 11.6-1.4 8.1-9.7 9.4-15 9-4.3-.4-7.2-2-8.7-5 4.1 1.6 6.2 1.3 6.2-.9 0-1.3-2.5-3-7.6-4.8a8.8 8.8 0 0 0-3.4 8.1c.6 6.6 2.3 11.2 6.6 13 5 2.1 12 2.6 35.1 2.6 17 0 26.7-3 35-9 1.6-1.1 7.2-5.6 8.5-6.6a27.9 27.9 0 0 1 27-4c.1-6.5-1-11.2-4.2-11.2-7.9 0 4.5 9.3-2.5 7.3-7-2-17.5-10.1-4.6-19.7 6.7-5 17-1.5 23.4 7.6 6 8.5 7 23 6.5 27.7-1.1 9.6-1.1 23.1 8.5 17.5 9.6-5.7 9.9 6.5-3.4 13.8-13.2 7.4-28.5.9-26.8-13l1.5-10.9z"/>
  </g>
</svg>
